<?xml version="1.0" encoding="UTF-8" standalone="no"?>
<!-- Created with Inkscape (http://www.inkscape.org/) -->

<svg
   xmlns:dc="http://purl.org/dc/elements/1.1/"
   xmlns:cc="http://creativecommons.org/ns#"
   xmlns:rdf="http://www.w3.org/1999/02/22-rdf-syntax-ns#"
   xmlns:svg="http://www.w3.org/2000/svg"
   xmlns="http://www.w3.org/2000/svg"
   xmlns:sodipodi="http://sodipodi.sourceforge.net/DTD/sodipodi-0.dtd"
   xmlns:inkscape="http://www.inkscape.org/namespaces/inkscape"
   width="210mm"
   height="297mm"
   viewBox="0 0 210 297"
   version="1.1"
   id="svg8"
   inkscape:version="0.92.5 (2060ec1f9f, 2020-04-08)"
   sodipodi:docname="iac.svg"
   inkscape:export-filename="/home/marco/Jobs/MarcoMoraes/site/images/iac.png"
   inkscape:export-xdpi="96"
   inkscape:export-ydpi="96">
  <defs
     id="defs2"><clipPath
   clipPathUnits="userSpaceOnUse"
   id="clipPath871">
  <rect
     style="fill:#0000ff;fill-rule:evenodd;stroke-width:0.26458567"
     id="rect873"
     width="102.50336"
     height="128.64172"
     x="54.326786"
     y="81.742928"
     ry="1.2160884" />
</clipPath>
<clipPath
   clipPathUnits="userSpaceOnUse"
   id="clipPath875">
  <rect
     style="fill:#0000ff;fill-rule:evenodd;stroke-width:0.26458567"
     id="rect877"
     width="102.50336"
     height="128.64172"
     x="54.326786"
     y="81.742928"
     ry="1.2160884" />
</clipPath>
<clipPath
   clipPathUnits="userSpaceOnUse"
   id="clipPath879">
  <rect
     style="fill:#0000ff;fill-rule:evenodd;stroke-width:0.26458567"
     id="rect881"
     width="102.50336"
     height="128.64172"
     x="54.326786"
     y="81.742928"
     ry="1.2160884" />
</clipPath>
<clipPath
   clipPathUnits="userSpaceOnUse"
   id="clipPath883">
  <rect
     style="fill:#0000ff;fill-rule:evenodd;stroke-width:0.26458567"
     id="rect885"
     width="102.50336"
     height="128.64172"
     x="54.326786"
     y="81.742928"
     ry="1.2160884" />
</clipPath>

	

	
	
	
	<linearGradient
   y2="19.2332"
   x2="42.298401"
   y1="19.2332"
   x1="21.8064"
   gradientUnits="userSpaceOnUse"
   id="SVGID_1">
<stop
   id="stop908"
   style="stop-color:rgb(255,255,255);stop-opacity: 1"
   offset="0%" />

<stop
   id="stop910"
   style="stop-color:rgb(0,0,0);stop-opacity: 1"
   offset="100%" />

</linearGradient>


	
	
	
	
	
	
</defs>
  <sodipodi:namedview
     id="base"
     pagecolor="#ffffff"
     bordercolor="#666666"
     borderopacity="1.0"
     inkscape:pageopacity="0.0"
     inkscape:pageshadow="2"
     inkscape:zoom="0.77436479"
     inkscape:cx="110.47982"
     inkscape:cy="398.26122"
     inkscape:document-units="mm"
     inkscape:current-layer="layer1"
     showgrid="false"
     inkscape:snap-global="false"
     inkscape:window-width="1920"
     inkscape:window-height="1009"
     inkscape:window-x="0"
     inkscape:window-y="0"
     inkscape:window-maximized="1" />
  <metadata
     id="metadata5">
    <rdf:RDF>
      <cc:Work
         rdf:about="">
        <dc:format>image/svg+xml</dc:format>
        <dc:type
           rdf:resource="http://purl.org/dc/dcmitype/StillImage" />
        <dc:title></dc:title>
      </cc:Work>
    </rdf:RDF>
  </metadata>
  <g
     inkscape:label="Camada 1"
     inkscape:groupmode="layer"
     id="layer1">
    <rect
       style="fill:#ffffff;fill-rule:evenodd;stroke:none;stroke-width:0.14383945"
       id="rect1038"
       width="61.118752"
       height="61.118752"
       x="49.284492"
       y="159.42186" />
    <g
       id="g1051"
       transform="matrix(0.68836395,0,0,0.68836395,25.709093,111.49579)">
      <g
         id="g1017">
        <path
           id="path902"
           style="opacity:1;fill:#77b3d4;fill-opacity:1;fill-rule:nonzero;stroke:none;stroke-width:0.741045;stroke-linecap:butt;stroke-linejoin:miter;stroke-miterlimit:10;stroke-dasharray:none"
           d="M 99.660555,91.268813 87.84237,79.450627 C 87.206553,78.814069 86.359539,78.463555 85.45991,78.463555 H 53.914365 c -1.85854,0 -3.370272,1.511732 -3.370272,3.370273 v 59.953502 c 0,1.85854 1.511732,3.37027 3.370272,3.37027 h 43.36299 c 1.85854,0 3.371015,-1.51173 3.371015,-3.37027 V 93.652013 c 0,-0.900369 -0.35126,-1.747384 -0.987815,-2.3832 z m -12.153879,-9.010367 9.345319,9.34606 h -8.399004 c -0.521696,0 -0.945574,-0.424619 -0.945574,-0.946314 v -8.399746 z m 9.770679,60.676024 h -43.36299 c -0.632852,0 -1.147137,-0.51429 -1.147137,-1.14714 V 81.833828 c 0,-0.632853 0.514285,-1.147138 1.147137,-1.147138 h 31.369917 v 9.971502 c 0,1.747384 1.421325,3.169449 3.168709,3.169449 h 9.972242 v 47.959689 c 0,0.63285 -0.515026,1.14714 -1.147878,1.14714 z"
           inkscape:connector-curvature="0" />
        <path
           id="path904"
           style="opacity:1;fill:#77b3d4;fill-opacity:1;fill-rule:nonzero;stroke:none;stroke-width:0.741045;stroke-linecap:butt;stroke-linejoin:miter;stroke-miterlimit:10;stroke-dasharray:none"
           d="M 92.782917,103.15443 H 73.230444 c -0.614326,0 -1.111567,-0.49724 -1.111567,-1.11156 0,-0.61433 0.497241,-1.11157 1.111567,-1.11157 h 19.552473 c 0.613585,0 1.111567,0.49724 1.111567,1.11157 0,0.61432 -0.497982,1.11156 -1.111567,1.11156 z"
           inkscape:connector-curvature="0" />
        <path
           id="path906"
           style="opacity:1;fill:#77b3d4;fill-opacity:1;fill-rule:nonzero;stroke:none;stroke-width:0.741045;stroke-linecap:butt;stroke-linejoin:miter;stroke-miterlimit:10;stroke-dasharray:none"
           d="m 67.782282,103.15443 h -9.373479 c -0.614326,0 -1.111567,-0.49724 -1.111567,-1.11156 0,-0.61433 0.497241,-1.11157 1.111567,-1.11157 h 9.373479 c 0.614326,0 1.111567,0.49724 1.111567,1.11157 0,0.61432 -0.497241,1.11156 -1.111567,1.11156 z"
           inkscape:connector-curvature="0" />
        <path
           id="path915"
           style="opacity:1;fill:#77b3d4;fill-opacity:1;fill-rule:nonzero;stroke:none;stroke-width:0.741045;stroke-linecap:butt;stroke-linejoin:miter;stroke-miterlimit:10;stroke-dasharray:none"
           d="M 73.593556,93.827641 H 58.408803 c -0.614326,0 -1.111567,-0.497241 -1.111567,-1.111568 0,-0.614326 0.497241,-1.111567 1.111567,-1.111567 h 15.185494 c 0.614327,0 1.111568,0.497241 1.111568,1.111567 0,0.614327 -0.497982,1.111568 -1.112309,1.111568 z"
           inkscape:connector-curvature="0" />
        <path
           id="path917"
           style="opacity:1;fill:#77b3d4;fill-opacity:1;fill-rule:nonzero;stroke:none;stroke-width:0.741045;stroke-linecap:butt;stroke-linejoin:miter;stroke-miterlimit:10;stroke-dasharray:none"
           d="M 92.782917,111.30593 H 58.408803 c -0.614326,0 -1.111567,-0.49724 -1.111567,-1.11157 0,-0.61433 0.497241,-1.11157 1.111567,-1.11157 h 34.374855 c 0.613585,0 1.111567,0.49724 1.111567,1.11157 0,0.61433 -0.498723,1.11157 -1.112308,1.11157 z"
           inkscape:connector-curvature="0" />
        <path
           id="path919"
           style="opacity:1;fill:#77b3d4;fill-opacity:1;fill-rule:nonzero;stroke:none;stroke-width:0.741045;stroke-linecap:butt;stroke-linejoin:miter;stroke-miterlimit:10;stroke-dasharray:none"
           d="M 77.960535,119.45742 H 58.408803 c -0.614326,0 -1.111567,-0.49798 -1.111567,-1.11156 0,-0.61359 0.497241,-1.11157 1.111567,-1.11157 h 19.552473 c 0.613585,0 1.111567,0.49798 1.111567,1.11157 0,0.61358 -0.497982,1.11156 -1.112308,1.11156 z"
           inkscape:connector-curvature="0" />
        <path
           id="path921"
           style="opacity:1;fill:#77b3d4;fill-opacity:1;fill-rule:nonzero;stroke:none;stroke-width:0.741045;stroke-linecap:butt;stroke-linejoin:miter;stroke-miterlimit:10;stroke-dasharray:none"
           d="m 92.782917,119.45742 h -9.373479 c -0.613585,0 -1.111567,-0.49798 -1.111567,-1.11156 0,-0.61359 0.497982,-1.11157 1.111567,-1.11157 h 9.373479 c 0.613585,0 1.111567,0.49798 1.111567,1.11157 0,0.61358 -0.497982,1.11156 -1.111567,1.11156 z"
           inkscape:connector-curvature="0" />
        <path
           id="path923"
           style="opacity:1;fill:#77b3d4;fill-opacity:1;fill-rule:nonzero;stroke:none;stroke-width:0.741045;stroke-linecap:butt;stroke-linejoin:miter;stroke-miterlimit:10;stroke-dasharray:none"
           d="M 92.782917,127.60892 H 58.408803 c -0.614326,0 -1.111567,-0.49798 -1.111567,-1.11157 0,-0.61358 0.497241,-1.11157 1.111567,-1.11157 h 34.374855 c 0.613585,0 1.111567,0.49799 1.111567,1.11157 0,0.61359 -0.498723,1.11157 -1.112308,1.11157 z"
           inkscape:connector-curvature="0" />
      </g>
      <rect
         ry="0"
         y="131.10413"
         x="88.665718"
         height="18.089716"
         width="17.644838"
         id="rect976"
         style="fill:#ffffff;fill-rule:evenodd;stroke-width:0.12545951" />
      <path
         inkscape:connector-curvature="0"
         id="path963"
         d="m 89.332277,149.54678 c -0.195316,-0.0418 -0.383014,-0.12635 -0.543579,-0.24472 -0.106719,-0.0787 -0.269856,-0.24504 -0.339436,-0.34618 -0.07105,-0.10328 -0.169334,-0.32093 -0.204604,-0.45313 -0.03157,-0.11844 -0.03164,-0.12075 -0.03164,-1.42325 v -1.30463 l 0.03282,-0.12024 c 0.06226,-0.22797 0.17857,-0.43612 0.345208,-0.61798 l 0.08778,-0.0958 -0.0812,-0.0891 c -0.206055,-0.22623 -0.334595,-0.48298 -0.376941,-0.75291 -0.01209,-0.0768 -0.01538,-0.45298 -0.01194,-1.3609 l 0.0044,-1.25472 0.03289,-0.11364 c 0.06563,-0.22693 0.181632,-0.43235 0.344725,-0.61034 l 0.08778,-0.0958 -0.0812,-0.0892 c -0.147022,-0.16141 -0.257557,-0.34253 -0.319805,-0.52402 -0.07373,-0.21497 -0.07201,-0.15974 -0.07201,-2.25931 0,-2.14968 -0.0037,-2.0591 0.08713,-2.34161 0.05347,-0.167 1.76844,-3.6102 1.888051,-3.79076 0.08446,-0.12749 0.255103,-0.29822 0.381819,-0.382 0.119062,-0.0787 0.305214,-0.16267 0.441174,-0.19896 l 0.117626,-0.0314 h 6.352007 6.352008 l 0.1212,0.0322 c 0.15187,0.0404 0.37778,0.15012 0.49904,0.24229 0.11554,0.0878 0.25756,0.23871 0.33132,0.352 0.0309,0.0475 0.45393,0.88124 0.94,1.85278 0.61354,1.2263 0.89852,1.81051 0.93197,1.91059 0.0961,0.28739 0.0923,0.19038 0.0923,2.35343 0,1.30378 -0.005,1.98422 -0.0149,2.04061 -0.0193,0.109 -0.079,0.29309 -0.12447,0.38403 -0.0529,0.10573 -0.16045,0.25918 -0.25242,0.36015 l -0.0813,0.0892 0.0748,0.0819 c 0.1574,0.17218 0.25605,0.33122 0.32136,0.51809 0.0771,0.22055 0.077,0.21814 0.077,1.53715 0,0.79104 -0.005,1.25218 -0.0149,1.30693 -0.0193,0.10899 -0.079,0.2931 -0.12447,0.38403 -0.0529,0.10574 -0.16044,0.25917 -0.25241,0.36014 l -0.0813,0.0893 0.0748,0.0818 c 0.16195,0.17717 0.25915,0.33618 0.32639,0.53392 0.0732,0.2153 0.0741,0.23603 0.0691,1.58686 -0.004,1.24632 -0.005,1.25547 -0.0363,1.3667 -0.0365,0.12899 -0.13641,0.34704 -0.20417,0.44552 -0.0697,0.10129 -0.23261,0.26738 -0.34133,0.34798 -0.11686,0.0866 -0.32785,0.18861 -0.4796,0.23181 l -0.11199,0.0319 -8.055859,0.003 c -7.743872,0.002 -8.060557,0.001 -8.177062,-0.0234 z m 16.197283,-0.72386 c 0.22385,-0.0766 0.40469,-0.26504 0.46526,-0.48473 0.025,-0.0907 0.0267,-0.16798 0.0267,-1.26582 0,-1.16632 -1.5e-4,-1.16942 -0.0315,-1.26898 -0.0724,-0.22963 -0.23791,-0.3951 -0.46754,-0.46754 l -0.0998,-0.0315 h -7.948942 -7.948923 l -0.09981,0.0315 c -0.225641,0.0712 -0.390602,0.23374 -0.467222,0.46041 -0.03106,0.0918 -0.03135,0.10309 -0.03589,1.20482 -0.0051,1.15188 -5.27e-4,1.26317 0.0534,1.40588 0.08419,0.22276 0.313118,0.40382 0.555966,0.43973 0.04351,0.007 3.640105,0.0108 7.992412,0.01 l 7.913289,-0.002 z m -2.23751,-0.6962 c -0.1033,-0.0224 -0.26673,-0.0959 -0.36809,-0.16555 -0.43806,-0.30098 -0.5875,-0.88032 -0.35064,-1.35935 0.18188,-0.36785 0.54509,-0.59169 0.96009,-0.59169 0.25606,0 0.47852,0.0764 0.66756,0.22942 0.26097,0.21116 0.4018,0.50556 0.4018,0.83995 0,0.25374 -0.0808,0.48344 -0.23799,0.67691 -0.14067,0.1731 -0.38952,0.32802 -0.59611,0.37113 -0.1241,0.0259 -0.35526,0.0255 -0.47662,-7.3e-4 z m 0.43544,-0.65528 c 0.1527,-0.0747 0.23939,-0.21665 0.23939,-0.39194 0,-0.12536 -0.0308,-0.207 -0.11233,-0.29718 -0.12467,-0.138 -0.34211,-0.17991 -0.50878,-0.0981 -0.35338,0.17354 -0.32352,0.67837 0.048,0.81114 0.0998,0.0357 0.23114,0.0262 0.33374,-0.0239 z m -13.179135,0.29123 c -0.06988,-0.0346 -0.155108,-0.12384 -0.183749,-0.19239 -0.01575,-0.0376 -0.01992,-0.14285 -0.0197,-0.49389 3.58e-4,-0.50213 0.0022,-0.51091 0.108491,-0.61286 0.07288,-0.0697 0.142458,-0.0969 0.247653,-0.0969 0.103958,0 0.163064,0.0227 0.239984,0.0922 0.114506,0.10345 0.116469,0.11392 0.116469,0.62071 0,0.42235 -0.0015,0.45063 -0.02937,0.50788 -0.03392,0.07 -0.123566,0.15611 -0.192766,0.18503 -0.07296,0.0305 -0.215555,0.0256 -0.287048,-0.01 z m 1.78227,0 c -0.06988,-0.0346 -0.155108,-0.12384 -0.183742,-0.19239 -0.01575,-0.0376 -0.01992,-0.14285 -0.0197,-0.49389 3.51e-4,-0.50213 0.0022,-0.51091 0.108484,-0.61286 0.07288,-0.0697 0.142458,-0.0969 0.247653,-0.0969 0.103958,0 0.163064,0.0227 0.239984,0.0922 0.114506,0.10345 0.116469,0.11392 0.116469,0.62071 0,0.42235 -0.0015,0.45063 -0.02937,0.50788 -0.03391,0.07 -0.123566,0.15611 -0.192766,0.18503 -0.07296,0.0305 -0.215555,0.0256 -0.287048,-0.01 z m 1.78227,0 c -0.06981,-0.0346 -0.155108,-0.12384 -0.183742,-0.19239 -0.01575,-0.0376 -0.01992,-0.14285 -0.0197,-0.49389 3.51e-4,-0.50213 0.0022,-0.51091 0.108484,-0.61286 0.07288,-0.0697 0.142458,-0.0969 0.247653,-0.0969 0.103957,0 0.163063,0.0227 0.239984,0.0922 0.114505,0.10345 0.116469,0.11392 0.116469,0.62071 0,0.42235 -0.0015,0.45063 -0.02937,0.50788 -0.03391,0.07 -0.123567,0.15611 -0.192766,0.18503 -0.07296,0.0305 -0.215555,0.0256 -0.287048,-0.01 z m 1.78227,0 c -0.06988,-0.0346 -0.155108,-0.12384 -0.183742,-0.19239 -0.01575,-0.0376 -0.01992,-0.14285 -0.01971,-0.49389 3.52e-4,-0.50213 0.0022,-0.51091 0.108485,-0.61286 0.07288,-0.0697 0.142465,-0.0969 0.247653,-0.0969 0.103965,0 0.163063,0.0227 0.239984,0.0922 0.114505,0.10345 0.116476,0.11392 0.116476,0.62071 0,0.42235 -0.0015,0.45063 -0.02937,0.50788 -0.03392,0.07 -0.123566,0.15611 -0.192766,0.18503 -0.07296,0.0305 -0.215562,0.0256 -0.287048,-0.01 z m 1.78227,0 c -0.06988,-0.0346 -0.155101,-0.12384 -0.183742,-0.19239 -0.01575,-0.0376 -0.01992,-0.14285 -0.0197,-0.49389 3.52e-4,-0.50213 0.0022,-0.51091 0.108492,-0.61286 0.07288,-0.0697 0.142458,-0.0969 0.247653,-0.0969 0.103958,0 0.163056,0.0227 0.239977,0.0922 0.114505,0.10345 0.116476,0.11392 0.116476,0.62071 0,0.42235 -0.0015,0.45063 -0.02937,0.50788 -0.03392,0.07 -0.123566,0.15611 -0.192766,0.18503 -0.07296,0.0305 -0.215555,0.0256 -0.287048,-0.01 z m 1.425817,-0.35646 c -0.06988,-0.0346 -0.155101,-0.12384 -0.183742,-0.19238 -0.02871,-0.0686 -0.02505,-0.21486 0.0073,-0.28404 0.01458,-0.0314 0.05135,-0.0808 0.08168,-0.10981 0.107048,-0.1024 0.03282,-0.0969 1.31701,-0.0969 1.27474,0 1.20159,-0.005 1.30934,0.0922 0.0815,0.0736 0.11648,0.15304 0.11648,0.26426 0,0.11121 -0.035,0.19066 -0.11648,0.26425 -0.10776,0.0974 -0.0343,0.0922 -1.31245,0.0922 -1.14579,-1e-5 -1.159612,-3.4e-4 -1.21896,-0.0297 z m 6.426308,-2.86075 c 0.22385,-0.0766 0.40469,-0.26503 0.46526,-0.48472 0.025,-0.0908 0.0267,-0.16798 0.0267,-1.26582 0,-1.16632 -1.5e-4,-1.16942 -0.0315,-1.26898 -0.0724,-0.22964 -0.23791,-0.3951 -0.46754,-0.46755 l -0.0998,-0.0315 h -7.948942 -7.948923 l -0.09981,0.0315 c -0.225641,0.0712 -0.390602,0.23375 -0.467222,0.46042 -0.03106,0.0918 -0.03135,0.10309 -0.03589,1.20481 -0.0051,1.1519 -5.27e-4,1.26318 0.0534,1.40589 0.08419,0.22275 0.313118,0.40382 0.555966,0.43973 0.04351,0.007 3.640105,0.0108 7.992412,0.01 l 7.913279,-0.002 z m -2.23751,-0.69619 c -0.16032,-0.0348 -0.36083,-0.14322 -0.49856,-0.26966 -0.13691,-0.12569 -0.25365,-0.32723 -0.30333,-0.52371 -0.0425,-0.168 -0.0327,-0.42791 0.022,-0.58748 0.0563,-0.16408 0.14139,-0.30031 0.26435,-0.42324 0.12443,-0.1244 0.25906,-0.20871 0.42182,-0.26416 0.1626,-0.0554 0.4206,-0.0648 0.59163,-0.0215 0.38531,0.0974 0.68685,0.39783 0.78514,0.78214 0.0374,0.14627 0.0375,0.37431 1.7e-4,0.52021 -0.0551,0.21552 -0.194,0.43294 -0.36495,0.57132 -0.11132,0.0901 -0.31627,0.19078 -0.44166,0.21694 -0.1241,0.0259 -0.35526,0.0255 -0.47662,-7.3e-4 z m 0.41899,-0.66347 c 0.0827,-0.0388 0.1671,-0.12362 0.20851,-0.20929 0.0251,-0.0519 0.0327,-0.0922 0.0327,-0.17446 0,-0.0823 -0.008,-0.12252 -0.0327,-0.17447 -0.0416,-0.0861 -0.12553,-0.17004 -0.21168,-0.21168 -0.0949,-0.0459 -0.25403,-0.0459 -0.34892,1e-5 -0.0891,0.0431 -0.16824,0.12162 -0.21025,0.20864 -0.0471,0.0976 -0.048,0.2557 -0.002,0.35106 0.056,0.11569 0.16902,0.20867 0.29388,0.24164 0.0662,0.0175 0.19914,0.002 0.2703,-0.0314 z m -13.162685,0.29942 c -0.06988,-0.0346 -0.155108,-0.12384 -0.183749,-0.19238 -0.01575,-0.0377 -0.01992,-0.14286 -0.0197,-0.4939 3.58e-4,-0.50213 0.0022,-0.51091 0.108491,-0.61287 0.07288,-0.0697 0.142458,-0.0969 0.247653,-0.0969 0.103958,0 0.163064,0.0227 0.239984,0.0922 0.114506,0.10346 0.116469,0.11394 0.116469,0.62072 0,0.42234 -0.0015,0.45063 -0.02937,0.50788 -0.03392,0.07 -0.123566,0.15611 -0.192766,0.18502 -0.07296,0.0305 -0.215555,0.0256 -0.287048,-0.01 z m 1.78227,0 c -0.06988,-0.0346 -0.155108,-0.12384 -0.183742,-0.19238 -0.01575,-0.0377 -0.01992,-0.14286 -0.0197,-0.4939 3.51e-4,-0.50213 0.0022,-0.51091 0.108484,-0.61287 0.07288,-0.0697 0.142458,-0.0969 0.247653,-0.0969 0.103958,0 0.163064,0.0227 0.239984,0.0922 0.114506,0.10346 0.116469,0.11394 0.116469,0.62072 0,0.42234 -0.0015,0.45063 -0.02937,0.50788 -0.03391,0.07 -0.123566,0.15611 -0.192766,0.18502 -0.07296,0.0305 -0.215555,0.0256 -0.287048,-0.01 z m 1.78227,0 c -0.06981,-0.0346 -0.155108,-0.12384 -0.183742,-0.19238 -0.01575,-0.0377 -0.01992,-0.14286 -0.0197,-0.4939 3.51e-4,-0.50213 0.0022,-0.51091 0.108484,-0.61287 0.07288,-0.0697 0.142458,-0.0969 0.247653,-0.0969 0.103957,0 0.163063,0.0227 0.239984,0.0922 0.114505,0.10346 0.116469,0.11394 0.116469,0.62072 0,0.42234 -0.0015,0.45063 -0.02937,0.50788 -0.03391,0.07 -0.123567,0.15611 -0.192766,0.18502 -0.07296,0.0305 -0.215555,0.0256 -0.287048,-0.01 z m 1.78227,0 c -0.06988,-0.0346 -0.155108,-0.12384 -0.183742,-0.19238 -0.01575,-0.0377 -0.01992,-0.14286 -0.01971,-0.4939 3.52e-4,-0.50213 0.0022,-0.51091 0.108485,-0.61287 0.07288,-0.0697 0.142465,-0.0969 0.247653,-0.0969 0.103965,0 0.163063,0.0227 0.239984,0.0922 0.114505,0.10346 0.116476,0.11394 0.116476,0.62072 0,0.42234 -0.0015,0.45063 -0.02937,0.50788 -0.03392,0.07 -0.123566,0.15611 -0.192766,0.18502 -0.07296,0.0305 -0.215562,0.0256 -0.287048,-0.01 z m 1.78227,0 c -0.06988,-0.0346 -0.155101,-0.12384 -0.183742,-0.19238 -0.01575,-0.0377 -0.01992,-0.14286 -0.0197,-0.4939 3.52e-4,-0.50213 0.0022,-0.51091 0.108492,-0.61287 0.07288,-0.0697 0.142458,-0.0969 0.247653,-0.0969 0.103958,0 0.163056,0.0227 0.239977,0.0922 0.114505,0.10346 0.116476,0.11394 0.116476,0.62072 0,0.42234 -0.0015,0.45063 -0.02937,0.50788 -0.03392,0.07 -0.123566,0.15611 -0.192766,0.18502 -0.07296,0.0305 -0.215555,0.0256 -0.287048,-0.01 z m 1.425817,-0.35645 c -0.06988,-0.0346 -0.155101,-0.12385 -0.183742,-0.19239 -0.02871,-0.0686 -0.02505,-0.21487 0.0073,-0.28404 0.01458,-0.0314 0.05135,-0.0808 0.08168,-0.10981 0.107048,-0.1024 0.03282,-0.0969 1.31701,-0.0969 1.27474,0 1.20159,-0.005 1.30934,0.0922 0.0815,0.0736 0.11648,0.15304 0.11648,0.26426 0,0.11121 -0.035,0.19066 -0.11648,0.26425 -0.10776,0.0974 -0.0343,0.0922 -1.31245,0.0922 -1.14579,-10e-6 -1.159612,-3.5e-4 -1.21896,-0.0297 z m 6.426308,-2.86076 c 0.21469,-0.0735 0.38684,-0.24567 0.46011,-0.46018 l 0.0316,-0.0927 0.004,-1.48641 0.004,-1.48642 h -8.555907 -8.555402 l 2.79e-4,1.42225 c 1.68e-4,0.83702 0.0059,1.46141 0.01406,1.51739 0.01897,0.13102 0.05992,0.23211 0.133968,0.33046 0.113927,0.15134 0.281847,0.25242 0.464109,0.27937 0.04351,0.007 3.640098,0.0108 7.992405,0.01 l 7.913288,-0.002 0.0927,-0.0317 z m -2.23751,-0.6962 c -0.16032,-0.0348 -0.36083,-0.14322 -0.49856,-0.26965 -0.13691,-0.12569 -0.25365,-0.32723 -0.30333,-0.52371 -0.0425,-0.16801 -0.0327,-0.42791 0.022,-0.58748 0.0563,-0.16409 0.14139,-0.3003 0.26435,-0.42324 0.12443,-0.12439 0.25906,-0.20871 0.42182,-0.26416 0.1626,-0.0554 0.4206,-0.0648 0.59163,-0.0215 0.38531,0.0974 0.68685,0.39783 0.78514,0.78215 0.0374,0.14626 0.0375,0.3743 1.7e-4,0.5202 -0.0551,0.21552 -0.194,0.43294 -0.36495,0.57132 -0.11132,0.0901 -0.31627,0.19078 -0.44166,0.21694 -0.1241,0.0259 -0.35526,0.0255 -0.47662,-7.3e-4 z m 0.42588,-0.66895 c 0.15385,-0.078 0.23425,-0.20779 0.23425,-0.37827 0,-0.12697 -0.0342,-0.21094 -0.12161,-0.29832 -0.0877,-0.0877 -0.17044,-0.12158 -0.29716,-0.12158 -0.12501,0 -0.2151,0.0362 -0.29892,0.11999 -0.0834,0.0834 -0.11985,0.17465 -0.11985,0.29991 0,0.12671 0.0342,0.21094 0.12093,0.29765 0.13032,0.13032 0.32129,0.16224 0.48236,0.0806 z m -13.169575,0.30491 c -0.06988,-0.0346 -0.155108,-0.12384 -0.183749,-0.19238 -0.01575,-0.0376 -0.01992,-0.14286 -0.0197,-0.4939 3.58e-4,-0.50214 0.0022,-0.51091 0.108491,-0.61286 0.07288,-0.0697 0.142458,-0.0969 0.247653,-0.0969 0.103958,0 0.163064,0.0227 0.239984,0.0922 0.114506,0.10344 0.116469,0.11393 0.116469,0.6207 0,0.42235 -0.0015,0.45064 -0.02937,0.50789 -0.03392,0.07 -0.123566,0.15611 -0.192766,0.18502 -0.07296,0.0305 -0.215555,0.0256 -0.287048,-0.01 z m 1.78227,0 c -0.06988,-0.0346 -0.155108,-0.12384 -0.183742,-0.19238 -0.01575,-0.0376 -0.01992,-0.14286 -0.0197,-0.4939 3.51e-4,-0.50214 0.0022,-0.51091 0.108484,-0.61286 0.07288,-0.0697 0.142458,-0.0969 0.247653,-0.0969 0.103958,0 0.163064,0.0227 0.239984,0.0922 0.114506,0.10344 0.116469,0.11393 0.116469,0.6207 0,0.42235 -0.0015,0.45064 -0.02937,0.50789 -0.03391,0.07 -0.123566,0.15611 -0.192766,0.18502 -0.07296,0.0305 -0.215555,0.0256 -0.287048,-0.01 z m 1.78227,0 c -0.06981,-0.0346 -0.155108,-0.12384 -0.183742,-0.19238 -0.01575,-0.0376 -0.01992,-0.14286 -0.0197,-0.4939 3.51e-4,-0.50214 0.0022,-0.51091 0.108484,-0.61286 0.07288,-0.0697 0.142458,-0.0969 0.247653,-0.0969 0.103957,0 0.163063,0.0227 0.239984,0.0922 0.114505,0.10344 0.116469,0.11393 0.116469,0.6207 0,0.42235 -0.0015,0.45064 -0.02937,0.50789 -0.03391,0.07 -0.123567,0.15611 -0.192766,0.18502 -0.07296,0.0305 -0.215555,0.0256 -0.287048,-0.01 z m 1.78227,0 c -0.06988,-0.0346 -0.155108,-0.12384 -0.183742,-0.19238 -0.01575,-0.0376 -0.01992,-0.14286 -0.01971,-0.4939 3.52e-4,-0.50214 0.0022,-0.51091 0.108485,-0.61286 0.07288,-0.0697 0.142465,-0.0969 0.247653,-0.0969 0.103965,0 0.163063,0.0227 0.239984,0.0922 0.114505,0.10344 0.116476,0.11393 0.116476,0.6207 0,0.42235 -0.0015,0.45064 -0.02937,0.50789 -0.03392,0.07 -0.123566,0.15611 -0.192766,0.18502 -0.07296,0.0305 -0.215562,0.0256 -0.287048,-0.01 z m 1.78227,0 c -0.06988,-0.0346 -0.155101,-0.12384 -0.183742,-0.19238 -0.01575,-0.0376 -0.01992,-0.14286 -0.0197,-0.4939 3.52e-4,-0.50214 0.0022,-0.51091 0.108492,-0.61286 0.07288,-0.0697 0.142458,-0.0969 0.247653,-0.0969 0.103958,0 0.163056,0.0227 0.239977,0.0922 0.114505,0.10344 0.116476,0.11393 0.116476,0.6207 0,0.42235 -0.0015,0.45064 -0.02937,0.50789 -0.03392,0.07 -0.123566,0.15611 -0.192766,0.18502 -0.07296,0.0305 -0.215555,0.0256 -0.287048,-0.01 z m 1.425817,-0.35646 c -0.06988,-0.0346 -0.155101,-0.12383 -0.183742,-0.19238 -0.02871,-0.0686 -0.02505,-0.21487 0.0073,-0.28405 0.01458,-0.0314 0.05135,-0.0808 0.08168,-0.1098 0.107048,-0.1024 0.03282,-0.0969 1.31701,-0.0969 1.27474,0 1.20159,-0.005 1.30934,0.0922 0.0815,0.0736 0.11648,0.15304 0.11648,0.26425 0,0.11122 -0.035,0.19067 -0.11648,0.26426 -0.10776,0.0974 -0.0343,0.0922 -1.31245,0.0922 -1.14579,-2e-5 -1.159612,-3.5e-4 -1.21896,-0.0297 z m 6.916678,-2.91814 c -0.0216,-0.22036 -0.0253,-0.22847 -0.95327,-2.08425 -0.96945,-1.93886 -0.92905,-1.86659 -1.10865,-1.98345 -0.0449,-0.0292 -0.12507,-0.065 -0.17823,-0.0797 -0.0937,-0.0259 -0.28588,-0.0267 -6.306092,-0.0267 -6.020203,0 -6.212376,7.3e-4 -6.306086,0.0267 -0.05318,0.0146 -0.13336,0.0505 -0.178226,0.0797 -0.179604,0.11686 -0.139206,0.0446 -1.108664,1.98345 -0.927911,1.85578 -0.931624,1.86389 -0.953263,2.08425 l -0.0094,0.0962 h 8.555688 8.555693 z m -14.75867,-2.78513 c -0.06981,-0.0346 -0.155101,-0.12383 -0.183742,-0.19237 -0.02871,-0.0686 -0.02505,-0.21488 0.0073,-0.28406 0.03296,-0.071 0.119919,-0.15552 0.189851,-0.18465 0.04754,-0.0198 0.543887,-0.0221 4.77555,-0.0221 h 4.722531 l 0.0607,0.0294 c 0.07,0.0339 0.15611,0.12357 0.18502,0.19277 0.0257,0.0615 0.0257,0.20711 0,0.26867 -0.0289,0.0692 -0.11497,0.15886 -0.18502,0.19277 l -0.0607,0.0294 -4.725644,-1e-5 -4.725644,-1e-5 z m 10.69363,0 c -0.0699,-0.0346 -0.15511,-0.12383 -0.18375,-0.19237 -0.0287,-0.0686 -0.0251,-0.21488 0.007,-0.28406 0.0146,-0.0313 0.0513,-0.0808 0.0817,-0.1098 0.10481,-0.10026 0.0719,-0.0969 0.96056,-0.0969 0.88216,0 0.84708,-0.004 0.95289,0.0922 0.0815,0.0736 0.11648,0.15304 0.11648,0.26426 0,0.11122 -0.035,0.19067 -0.11648,0.26425 -0.10584,0.0956 -0.0704,0.0922 -0.95599,0.0922 -0.78455,-1e-5 -0.80383,-6.7e-4 -0.86252,-0.0297 z"
         style="fill:#77b3d4;fill-opacity:1;stroke-width:0.01425817" />
    </g>
  </g>
</svg>
