<?xml version="1.0" encoding="UTF-8" standalone="no"?>
<!-- Created with Inkscape (http://www.inkscape.org/) -->

<svg
   xmlns:dc="http://purl.org/dc/elements/1.1/"
   xmlns:cc="http://creativecommons.org/ns#"
   xmlns:rdf="http://www.w3.org/1999/02/22-rdf-syntax-ns#"
   xmlns:svg="http://www.w3.org/2000/svg"
   xmlns="http://www.w3.org/2000/svg"
   xmlns:sodipodi="http://sodipodi.sourceforge.net/DTD/sodipodi-0.dtd"
   xmlns:inkscape="http://www.inkscape.org/namespaces/inkscape"
   width="210mm"
   height="297mm"
   viewBox="0 0 210 297"
   version="1.1"
   id="svg8"
   inkscape:version="0.92.5 (2060ec1f9f, 2020-04-08)"
   sodipodi:docname="iac.svg"
   inkscape:export-filename="/home/marco/Jobs/MarcoMoraes/site/images/iac.png"
   inkscape:export-xdpi="96"
   inkscape:export-ydpi="96">
  <defs
     id="defs2"><clipPath
   clipPathUnits="userSpaceOnUse"
   id="clipPath871">
  <rect
     style="fill:#0000ff;fill-rule:evenodd;stroke-width:0.26458567"
     id="rect873"
     width="102.50336"
     height="128.64172"
     x="54.326786"
     y="81.742928"
     ry="1.2160884" />
</clipPath>
<clipPath
   clipPathUnits="userSpaceOnUse"
   id="clipPath875">
  <rect
     style="fill:#0000ff;fill-rule:evenodd;stroke-width:0.26458567"
     id="rect877"
     width="102.50336"
     height="128.64172"
     x="54.326786"
     y="81.742928"
     ry="1.2160884" />
</clipPath>
<clipPath
   clipPathUnits="userSpaceOnUse"
   id="clipPath879">
  <rect
     style="fill:#0000ff;fill-rule:evenodd;stroke-width:0.26458567"
     id="rect881"
     width="102.50336"
     height="128.64172"
     x="54.326786"
     y="81.742928"
     ry="1.2160884" />
</clipPath>
<clipPath
   clipPathUnits="userSpaceOnUse"
   id="clipPath883">
  <rect
     style="fill:#0000ff;fill-rule:evenodd;stroke-width:0.26458567"
     id="rect885"
     width="102.50336"
     height="128.64172"
     x="54.326786"
     y="81.742928"
     ry="1.2160884" />
</clipPath>

	

	
	
	
	<linearGradient
   y2="19.2332"
   x2="42.298401"
   y1="19.2332"
   x1="21.8064"
   gradientUnits="userSpaceOnUse"
   id="SVGID_1">
<stop
   id="stop908"
   style="stop-color:rgb(255,255,255);stop-opacity: 1"
   offset="0%" />

<stop
   id="stop910"
   style="stop-color:rgb(0,0,0);stop-opacity: 1"
   offset="100%" />

</linearGradient>


	
	
	
	
	
	
</defs>
  <sodipodi:namedview
     id="base"
     pagecolor="#ffffff"
     bordercolor="#666666"
     borderopacity="1.0"
     inkscape:pageopacity="0.0"
     inkscape:pageshadow="2"
     inkscape:zoom="1.0951172"
     inkscape:cx="83.048547"
     inkscape:cy="253.95939"
     inkscape:document-units="mm"
     inkscape:current-layer="layer1"
     showgrid="false"
     inkscape:snap-global="false"
     inkscape:window-width="1920"
     inkscape:window-height="1009"
     inkscape:window-x="0"
     inkscape:window-y="0"
     inkscape:window-maximized="1" />
  <metadata
     id="metadata5">
    <rdf:RDF>
      <cc:Work
         rdf:about="">
        <dc:format>image/svg+xml</dc:format>
        <dc:type
           rdf:resource="http://purl.org/dc/dcmitype/StillImage" />
        <dc:title></dc:title>
      </cc:Work>
    </rdf:RDF>
  </metadata>
  <g
     inkscape:label="Camada 1"
     inkscape:groupmode="layer"
     id="layer1">
    <rect
       style="fill:#ffffff;fill-rule:evenodd;stroke:none;stroke-width:0.14383945"
       id="rect1038"
       width="61.118752"
       height="61.118752"
       x="49.284492"
       y="159.42186" />
    <g
       id="g1017"
       transform="matrix(0.68836395,0,0,0.68836395,25.709093,111.49579)"
       style="fill:#4396c4;fill-opacity:1">
      <path
         inkscape:connector-curvature="0"
         d="M 99.660555,91.268813 87.84237,79.450627 C 87.206553,78.814069 86.359539,78.463555 85.45991,78.463555 H 53.914365 c -1.85854,0 -3.370272,1.511732 -3.370272,3.370273 v 59.953502 c 0,1.85854 1.511732,3.37027 3.370272,3.37027 h 43.36299 c 1.85854,0 3.371015,-1.51173 3.371015,-3.37027 V 93.652013 c 0,-0.900369 -0.35126,-1.747384 -0.987815,-2.3832 z m -12.153879,-9.010367 9.345319,9.34606 h -8.399004 c -0.521696,0 -0.945574,-0.424619 -0.945574,-0.946314 v -8.399746 z m 9.770679,60.676024 h -43.36299 c -0.632852,0 -1.147137,-0.51429 -1.147137,-1.14714 V 81.833828 c 0,-0.632853 0.514285,-1.147138 1.147137,-1.147138 h 31.369917 v 9.971502 c 0,1.747384 1.421325,3.169449 3.168709,3.169449 h 9.972242 v 47.959689 c 0,0.63285 -0.515026,1.14714 -1.147878,1.14714 z"
         style="opacity:1;fill:#4396c4;fill-opacity:1;fill-rule:nonzero;stroke:none;stroke-width:0.741045;stroke-linecap:butt;stroke-linejoin:miter;stroke-miterlimit:10;stroke-dasharray:none"
         id="path902" />
      <path
         inkscape:connector-curvature="0"
         d="M 92.782917,103.15443 H 73.230444 c -0.614326,0 -1.111567,-0.49724 -1.111567,-1.11156 0,-0.61433 0.497241,-1.11157 1.111567,-1.11157 h 19.552473 c 0.613585,0 1.111567,0.49724 1.111567,1.11157 0,0.61432 -0.497982,1.11156 -1.111567,1.11156 z"
         style="opacity:1;fill:#4396c4;fill-opacity:1;fill-rule:nonzero;stroke:none;stroke-width:0.741045;stroke-linecap:butt;stroke-linejoin:miter;stroke-miterlimit:10;stroke-dasharray:none"
         id="path904" />
      <path
         inkscape:connector-curvature="0"
         d="m 67.782282,103.15443 h -9.373479 c -0.614326,0 -1.111567,-0.49724 -1.111567,-1.11156 0,-0.61433 0.497241,-1.11157 1.111567,-1.11157 h 9.373479 c 0.614326,0 1.111567,0.49724 1.111567,1.11157 0,0.61432 -0.497241,1.11156 -1.111567,1.11156 z"
         style="opacity:1;fill:#4396c4;fill-opacity:1;fill-rule:nonzero;stroke:none;stroke-width:0.741045;stroke-linecap:butt;stroke-linejoin:miter;stroke-miterlimit:10;stroke-dasharray:none"
         id="path906" />
      <path
         inkscape:connector-curvature="0"
         d="M 73.593556,93.827641 H 58.408803 c -0.614326,0 -1.111567,-0.497241 -1.111567,-1.111568 0,-0.614326 0.497241,-1.111567 1.111567,-1.111567 h 15.185494 c 0.614327,0 1.111568,0.497241 1.111568,1.111567 0,0.614327 -0.497982,1.111568 -1.112309,1.111568 z"
         style="opacity:1;fill:#4396c4;fill-opacity:1;fill-rule:nonzero;stroke:none;stroke-width:0.741045;stroke-linecap:butt;stroke-linejoin:miter;stroke-miterlimit:10;stroke-dasharray:none"
         id="path915" />
      <path
         inkscape:connector-curvature="0"
         d="M 92.782917,111.30593 H 58.408803 c -0.614326,0 -1.111567,-0.49724 -1.111567,-1.11157 0,-0.61433 0.497241,-1.11157 1.111567,-1.11157 h 34.374855 c 0.613585,0 1.111567,0.49724 1.111567,1.11157 0,0.61433 -0.498723,1.11157 -1.112308,1.11157 z"
         style="opacity:1;fill:#4396c4;fill-opacity:1;fill-rule:nonzero;stroke:none;stroke-width:0.741045;stroke-linecap:butt;stroke-linejoin:miter;stroke-miterlimit:10;stroke-dasharray:none"
         id="path917" />
      <path
         inkscape:connector-curvature="0"
         d="M 77.960535,119.45742 H 58.408803 c -0.614326,0 -1.111567,-0.49798 -1.111567,-1.11156 0,-0.61359 0.497241,-1.11157 1.111567,-1.11157 h 19.552473 c 0.613585,0 1.111567,0.49798 1.111567,1.11157 0,0.61358 -0.497982,1.11156 -1.112308,1.11156 z"
         style="opacity:1;fill:#4396c4;fill-opacity:1;fill-rule:nonzero;stroke:none;stroke-width:0.741045;stroke-linecap:butt;stroke-linejoin:miter;stroke-miterlimit:10;stroke-dasharray:none"
         id="path919" />
      <path
         inkscape:connector-curvature="0"
         d="m 92.782917,119.45742 h -9.373479 c -0.613585,0 -1.111567,-0.49798 -1.111567,-1.11156 0,-0.61359 0.497982,-1.11157 1.111567,-1.11157 h 9.373479 c 0.613585,0 1.111567,0.49798 1.111567,1.11157 0,0.61358 -0.497982,1.11156 -1.111567,1.11156 z"
         style="opacity:1;fill:#4396c4;fill-opacity:1;fill-rule:nonzero;stroke:none;stroke-width:0.741045;stroke-linecap:butt;stroke-linejoin:miter;stroke-miterlimit:10;stroke-dasharray:none"
         id="path921" />
      <path
         inkscape:connector-curvature="0"
         d="M 92.782917,127.60892 H 58.408803 c -0.614326,0 -1.111567,-0.49798 -1.111567,-1.11157 0,-0.61358 0.497241,-1.11157 1.111567,-1.11157 h 34.374855 c 0.613585,0 1.111567,0.49799 1.111567,1.11157 0,0.61359 -0.498723,1.11157 -1.112308,1.11157 z"
         style="opacity:1;fill:#4396c4;fill-opacity:1;fill-rule:nonzero;stroke:none;stroke-width:0.741045;stroke-linecap:butt;stroke-linejoin:miter;stroke-miterlimit:10;stroke-dasharray:none"
         id="path923" />
    </g>
    <rect
       style="fill:#ffffff;fill-rule:evenodd;stroke-width:0.0863618"
       id="rect976"
       width="12.14607"
       height="12.452309"
       x="86.743378"
       y="201.74315"
       ry="0" />
    <path
       style="fill:#4396c4;fill-opacity:1;stroke-width:0.00981481"
       d="m 87.202212,214.4384 c -0.134448,-0.0288 -0.263653,-0.087 -0.37418,-0.16845 -0.07346,-0.0542 -0.185759,-0.16868 -0.233656,-0.2383 -0.04891,-0.0711 -0.116563,-0.22092 -0.140842,-0.31192 -0.02173,-0.0815 -0.02178,-0.0831 -0.02178,-0.97971 v -0.89806 l 0.02259,-0.0828 c 0.04286,-0.15693 0.122921,-0.30021 0.237628,-0.4254 l 0.06042,-0.0659 -0.05589,-0.0613 c -0.141841,-0.15573 -0.230323,-0.33246 -0.259473,-0.51827 -0.0083,-0.0529 -0.01059,-0.31182 -0.0082,-0.9368 l 0.003,-0.8637 0.02264,-0.0782 c 0.04518,-0.15621 0.125029,-0.29761 0.237296,-0.42013 l 0.06042,-0.0659 -0.05589,-0.0614 c -0.101205,-0.11111 -0.177293,-0.23579 -0.220142,-0.36072 -0.05075,-0.14797 -0.04957,-0.10996 -0.04957,-1.55522 0,-1.47977 -0.0025,-1.41742 0.05998,-1.61188 0.03681,-0.11496 1.21733,-2.48514 1.299666,-2.60943 0.05814,-0.0878 0.175604,-0.20528 0.26283,-0.26295 0.08196,-0.0542 0.210099,-0.11198 0.303689,-0.13696 l 0.08097,-0.0216 h 4.372493 4.372493 l 0.08343,0.0222 c 0.104542,0.0278 0.26005,0.10334 0.343521,0.16679 0.07953,0.0604 0.177295,0.16431 0.228069,0.2423 0.02127,0.0327 0.312469,0.60661 0.647062,1.27539 0.422339,0.84414 0.618509,1.24629 0.641534,1.31518 0.06615,0.19783 0.06354,0.13105 0.06354,1.62001 0,0.89748 -0.0034,1.36587 -0.01026,1.40469 -0.01329,0.075 -0.05438,0.20175 -0.08568,0.26435 -0.03641,0.0728 -0.110448,0.17841 -0.173757,0.24791 l -0.05596,0.0614 0.05149,0.0564 c 0.108348,0.11852 0.176256,0.228 0.221213,0.35664 0.05307,0.15182 0.053,0.15016 0.053,1.05812 0,0.54452 -0.0034,0.86195 -0.01026,0.89964 -0.01328,0.075 -0.05438,0.20176 -0.08568,0.26435 -0.03641,0.0728 -0.110441,0.1784 -0.17375,0.24791 l -0.05596,0.0615 0.05149,0.0563 c 0.111481,0.12195 0.17839,0.23141 0.224675,0.36753 0.05039,0.1482 0.05101,0.16247 0.04757,1.09234 -0.0028,0.85792 -0.0034,0.86422 -0.02499,0.94078 -0.02513,0.0888 -0.0939,0.23889 -0.140543,0.30668 -0.04798,0.0697 -0.16012,0.18406 -0.234959,0.23954 -0.08044,0.0596 -0.22568,0.12983 -0.330139,0.15957 l -0.07709,0.022 -5.545363,0.002 c -5.330603,0.001 -5.548597,6.9e-4 -5.628795,-0.0161 z m 11.149626,-0.49828 c 0.15409,-0.0527 0.278574,-0.18244 0.320268,-0.33367 0.01721,-0.0624 0.01838,-0.11563 0.01838,-0.87134 0,-0.80286 -1.03e-4,-0.80499 -0.02168,-0.87352 -0.04984,-0.15807 -0.163769,-0.27198 -0.321838,-0.32184 l -0.0687,-0.0217 H 92.8065 87.334748 l -0.06871,0.0217 c -0.155323,0.049 -0.268877,0.1609 -0.321619,0.31693 -0.02138,0.0632 -0.02158,0.071 -0.0247,0.82935 -0.0035,0.79292 -3.63e-4,0.86952 0.03676,0.96776 0.05795,0.15334 0.215539,0.27798 0.382707,0.3027 0.02995,0.005 2.505717,0.007 5.501688,0.007 l 5.447223,-0.001 z m -1.540221,-0.47924 c -0.07111,-0.0154 -0.183608,-0.066 -0.25338,-0.11395 -0.301545,-0.20719 -0.404414,-0.60599 -0.241368,-0.93573 0.125199,-0.25322 0.37522,-0.4073 0.660891,-0.4073 0.176263,0 0.329396,0.0526 0.459524,0.15792 0.179643,0.14536 0.276585,0.34801 0.276585,0.5782 0,0.17466 -0.05562,0.33278 -0.163824,0.46596 -0.09683,0.11915 -0.268131,0.22579 -0.41034,0.25547 -0.08543,0.0178 -0.244549,0.0175 -0.328088,-5e-4 z m 0.299741,-0.45107 c 0.105113,-0.0514 0.164787,-0.14913 0.164787,-0.26979 0,-0.0863 -0.0212,-0.1425 -0.07732,-0.20457 -0.08582,-0.095 -0.235496,-0.12385 -0.350226,-0.0675 -0.243254,0.11946 -0.222699,0.46696 0.03304,0.55836 0.0687,0.0246 0.159108,0.018 0.229735,-0.0165 z m -9.072042,0.20048 c -0.0481,-0.0238 -0.10677,-0.0852 -0.126486,-0.13244 -0.01084,-0.0259 -0.01371,-0.0983 -0.01356,-0.33998 2.47e-4,-0.34564 0.0015,-0.35169 0.07468,-0.42187 0.05017,-0.048 0.09806,-0.0667 0.170475,-0.0667 0.07156,0 0.112247,0.0156 0.165196,0.0635 0.07882,0.0712 0.08017,0.0784 0.08017,0.42727 0,0.29073 -0.001,0.3102 -0.02022,0.34961 -0.02335,0.0482 -0.08506,0.10746 -0.132693,0.12737 -0.05022,0.021 -0.14838,0.0176 -0.197593,-0.007 z m 1.226851,0 c -0.0481,-0.0238 -0.106771,-0.0852 -0.126482,-0.13244 -0.01084,-0.0259 -0.01371,-0.0983 -0.01356,-0.33998 2.41e-4,-0.34564 0.0015,-0.35169 0.07468,-0.42187 0.05017,-0.048 0.09806,-0.0667 0.170475,-0.0667 0.07156,0 0.112248,0.0156 0.165197,0.0635 0.07882,0.0712 0.08017,0.0784 0.08017,0.42727 0,0.29073 -0.001,0.3102 -0.02022,0.34961 -0.02334,0.0482 -0.08506,0.10746 -0.132694,0.12737 -0.05022,0.021 -0.14838,0.0176 -0.197593,-0.007 z m 1.22685,0 c -0.04805,-0.0238 -0.106771,-0.0852 -0.126481,-0.13244 -0.01084,-0.0259 -0.01371,-0.0983 -0.01356,-0.33998 2.42e-4,-0.34564 0.0015,-0.35169 0.07468,-0.42187 0.05017,-0.048 0.09806,-0.0667 0.170476,-0.0667 0.07156,0 0.112247,0.0156 0.165196,0.0635 0.07882,0.0712 0.08017,0.0784 0.08017,0.42727 0,0.29073 -10e-4,0.3102 -0.02022,0.34961 -0.02334,0.0482 -0.08506,0.10746 -0.132693,0.12737 -0.05022,0.021 -0.14838,0.0176 -0.197594,-0.007 z m 1.226851,0 c -0.0481,-0.0238 -0.106771,-0.0852 -0.126482,-0.13244 -0.01084,-0.0259 -0.01371,-0.0983 -0.01357,-0.33998 2.42e-4,-0.34564 0.0015,-0.35169 0.07468,-0.42187 0.05017,-0.048 0.09807,-0.0667 0.170475,-0.0667 0.07157,0 0.112247,0.0156 0.165196,0.0635 0.07882,0.0712 0.08018,0.0784 0.08018,0.42727 0,0.29073 -0.001,0.3102 -0.02022,0.34961 -0.02335,0.0482 -0.08506,0.10746 -0.132693,0.12737 -0.05022,0.021 -0.148385,0.0176 -0.197594,-0.007 z m 1.22685,0 c -0.0481,-0.0238 -0.106766,-0.0852 -0.126481,-0.13244 -0.01084,-0.0259 -0.01371,-0.0983 -0.01356,-0.33998 2.42e-4,-0.34564 0.0015,-0.35169 0.07468,-0.42187 0.05017,-0.048 0.09806,-0.0667 0.170475,-0.0667 0.07156,0 0.112242,0.0156 0.165192,0.0635 0.07882,0.0712 0.08018,0.0784 0.08018,0.42727 0,0.29073 -10e-4,0.3102 -0.02022,0.34961 -0.02335,0.0482 -0.08506,0.10746 -0.132693,0.12737 -0.05022,0.021 -0.14838,0.0176 -0.197593,-0.007 z m 0.981481,-0.24538 c -0.0481,-0.0238 -0.106766,-0.0853 -0.126481,-0.13243 -0.01976,-0.0472 -0.01724,-0.1479 0.005,-0.19552 0.01004,-0.0216 0.03535,-0.0556 0.05622,-0.0756 0.07369,-0.0705 0.02259,-0.0667 0.906582,-0.0667 0.877486,0 0.827132,-0.003 0.901303,0.0635 0.0561,0.0507 0.08018,0.10534 0.08018,0.1819 0,0.0766 -0.02409,0.13125 -0.08018,0.1819 -0.07418,0.067 -0.02361,0.0635 -0.903443,0.0635 -0.788721,-1e-5 -0.798235,-2.3e-4 -0.839088,-0.0204 z m 4.423639,-1.96924 c 0.15409,-0.0527 0.278574,-0.18243 0.320268,-0.33366 0.01721,-0.0625 0.01838,-0.11563 0.01838,-0.87134 0,-0.80286 -1.03e-4,-0.80499 -0.02168,-0.87352 -0.04984,-0.15808 -0.163769,-0.27198 -0.321838,-0.32185 l -0.0687,-0.0217 H 92.8065 87.334748 l -0.06871,0.0217 c -0.155323,0.049 -0.268877,0.16091 -0.321619,0.31694 -0.02138,0.0632 -0.02158,0.071 -0.0247,0.82934 -0.0035,0.79293 -3.63e-4,0.86953 0.03676,0.96777 0.05795,0.15333 0.215539,0.27797 0.382707,0.30269 0.02995,0.005 2.505717,0.007 5.501688,0.007 l 5.447216,-10e-4 z m -1.540221,-0.47923 c -0.110359,-0.0239 -0.248383,-0.0986 -0.343191,-0.18562 -0.09424,-0.0865 -0.174604,-0.22526 -0.208802,-0.36051 -0.02926,-0.11564 -0.02251,-0.29455 0.01514,-0.4044 0.03876,-0.11294 0.09733,-0.20672 0.181969,-0.29134 0.08565,-0.0856 0.178328,-0.14367 0.290366,-0.18184 0.111928,-0.0381 0.289526,-0.0446 0.407257,-0.0148 0.265233,0.067 0.472803,0.27385 0.540462,0.5384 0.02575,0.10069 0.02581,0.25766 1.17e-4,0.35809 -0.03793,0.14836 -0.133543,0.29802 -0.251218,0.39328 -0.07663,0.062 -0.217709,0.13133 -0.304023,0.14933 -0.08543,0.0178 -0.244548,0.0176 -0.328088,-5e-4 z m 0.288417,-0.45671 c 0.05693,-0.0267 0.115026,-0.0851 0.143531,-0.14406 0.01728,-0.0357 0.02251,-0.0635 0.02251,-0.1201 0,-0.0566 -0.0055,-0.0843 -0.02251,-0.1201 -0.02864,-0.0593 -0.08641,-0.11705 -0.145713,-0.14571 -0.06533,-0.0316 -0.174865,-0.0316 -0.240184,1e-5 -0.06133,0.0297 -0.11581,0.0837 -0.144728,0.14362 -0.03242,0.0672 -0.03304,0.17601 -0.0014,0.24166 0.03855,0.0796 0.116347,0.14364 0.202296,0.16633 0.04557,0.0121 0.137081,0.001 0.186065,-0.0216 z m -9.060718,0.20611 c -0.0481,-0.0238 -0.10677,-0.0852 -0.126486,-0.13242 -0.01084,-0.026 -0.01371,-0.0983 -0.01356,-0.33999 2.47e-4,-0.34565 0.0015,-0.35169 0.07468,-0.42188 0.05017,-0.048 0.09806,-0.0667 0.170475,-0.0667 0.07156,0 0.112247,0.0156 0.165196,0.0635 0.07882,0.0712 0.08017,0.0784 0.08017,0.42728 0,0.29072 -0.001,0.3102 -0.02022,0.34961 -0.02335,0.0482 -0.08506,0.10746 -0.132693,0.12736 -0.05022,0.021 -0.14838,0.0176 -0.197593,-0.007 z m 1.226851,0 c -0.0481,-0.0238 -0.106771,-0.0852 -0.126482,-0.13242 -0.01084,-0.026 -0.01371,-0.0983 -0.01356,-0.33999 2.41e-4,-0.34565 0.0015,-0.35169 0.07468,-0.42188 0.05017,-0.048 0.09806,-0.0667 0.170475,-0.0667 0.07156,0 0.112248,0.0156 0.165197,0.0635 0.07882,0.0712 0.08017,0.0784 0.08017,0.42728 0,0.29072 -0.001,0.3102 -0.02022,0.34961 -0.02334,0.0482 -0.08506,0.10746 -0.132694,0.12736 -0.05022,0.021 -0.14838,0.0176 -0.197593,-0.007 z m 1.22685,0 c -0.04805,-0.0238 -0.106771,-0.0852 -0.126481,-0.13242 -0.01084,-0.026 -0.01371,-0.0983 -0.01356,-0.33999 2.42e-4,-0.34565 0.0015,-0.35169 0.07468,-0.42188 0.05017,-0.048 0.09806,-0.0667 0.170476,-0.0667 0.07156,0 0.112247,0.0156 0.165196,0.0635 0.07882,0.0712 0.08017,0.0784 0.08017,0.42728 0,0.29072 -10e-4,0.3102 -0.02022,0.34961 -0.02334,0.0482 -0.08506,0.10746 -0.132693,0.12736 -0.05022,0.021 -0.14838,0.0176 -0.197594,-0.007 z m 1.226851,0 c -0.0481,-0.0238 -0.106771,-0.0852 -0.126482,-0.13242 -0.01084,-0.026 -0.01371,-0.0983 -0.01357,-0.33999 2.42e-4,-0.34565 0.0015,-0.35169 0.07468,-0.42188 0.05017,-0.048 0.09807,-0.0667 0.170475,-0.0667 0.07157,0 0.112247,0.0156 0.165196,0.0635 0.07882,0.0712 0.08018,0.0784 0.08018,0.42728 0,0.29072 -0.001,0.3102 -0.02022,0.34961 -0.02335,0.0482 -0.08506,0.10746 -0.132693,0.12736 -0.05022,0.021 -0.148385,0.0176 -0.197594,-0.007 z m 1.22685,0 c -0.0481,-0.0238 -0.106766,-0.0852 -0.126481,-0.13242 -0.01084,-0.026 -0.01371,-0.0983 -0.01356,-0.33999 2.42e-4,-0.34565 0.0015,-0.35169 0.07468,-0.42188 0.05017,-0.048 0.09806,-0.0667 0.170475,-0.0667 0.07156,0 0.112242,0.0156 0.165192,0.0635 0.07882,0.0712 0.08018,0.0784 0.08018,0.42728 0,0.29072 -10e-4,0.3102 -0.02022,0.34961 -0.02335,0.0482 -0.08506,0.10746 -0.132693,0.12736 -0.05022,0.021 -0.14838,0.0176 -0.197593,-0.007 z m 0.981481,-0.24536 c -0.0481,-0.0238 -0.106766,-0.0853 -0.126481,-0.13244 -0.01976,-0.0472 -0.01724,-0.14791 0.005,-0.19552 0.01004,-0.0216 0.03535,-0.0556 0.05622,-0.0756 0.07369,-0.0705 0.02259,-0.0667 0.906582,-0.0667 0.877486,0 0.827132,-0.003 0.901303,0.0635 0.0561,0.0507 0.08018,0.10535 0.08018,0.18191 0,0.0765 -0.02409,0.13124 -0.08018,0.1819 -0.07418,0.067 -0.02361,0.0635 -0.903443,0.0635 -0.788721,-1e-5 -0.798235,-2.4e-4 -0.839088,-0.0204 z m 4.423639,-1.96925 c 0.147785,-0.0506 0.266286,-0.16911 0.316723,-0.31677 l 0.02175,-0.0638 0.0028,-1.02319 0.0028,-1.0232 h -5.889578 -5.88923 l 1.92e-4,0.97903 c 1.16e-4,0.57617 0.0041,1.00598 0.0097,1.04451 0.01306,0.0902 0.04125,0.15978 0.09222,0.22748 0.07842,0.10418 0.194013,0.17376 0.319476,0.19231 0.02995,0.005 2.505712,0.007 5.501683,0.007 l 5.447223,-0.001 0.06381,-0.0218 z m -1.540221,-0.47924 c -0.110359,-0.024 -0.248383,-0.0986 -0.343191,-0.18561 -0.09424,-0.0865 -0.174604,-0.22526 -0.208802,-0.36051 -0.02926,-0.11565 -0.02251,-0.29456 0.01514,-0.4044 0.03876,-0.11295 0.09733,-0.20671 0.181969,-0.29134 0.08565,-0.0856 0.178328,-0.14367 0.290366,-0.18184 0.111928,-0.0381 0.289526,-0.0446 0.407257,-0.0148 0.265233,0.067 0.472803,0.27385 0.540462,0.5384 0.02575,0.10068 0.02581,0.25766 1.17e-4,0.35809 -0.03793,0.14836 -0.133543,0.29802 -0.251218,0.39328 -0.07663,0.062 -0.217709,0.13132 -0.304023,0.14933 -0.08543,0.0178 -0.244548,0.0175 -0.328088,-5e-4 z m 0.29316,-0.46048 c 0.105905,-0.0537 0.161249,-0.14303 0.161249,-0.26039 0,-0.0874 -0.02354,-0.1452 -0.08371,-0.20535 -0.06037,-0.0604 -0.117324,-0.0837 -0.204554,-0.0837 -0.08605,0 -0.148067,0.0249 -0.205766,0.0826 -0.05741,0.0574 -0.0825,0.12022 -0.0825,0.20644 0,0.0872 0.02354,0.14521 0.08324,0.2049 0.08971,0.0897 0.221164,0.11168 0.332039,0.0555 z m -9.065461,0.20989 c -0.0481,-0.0238 -0.10677,-0.0853 -0.126486,-0.13243 -0.01084,-0.0259 -0.01371,-0.0983 -0.01356,-0.33998 2.47e-4,-0.34566 0.0015,-0.35169 0.07468,-0.42187 0.05017,-0.048 0.09806,-0.0667 0.170475,-0.0667 0.07156,0 0.112247,0.0156 0.165196,0.0635 0.07882,0.0712 0.08017,0.0784 0.08017,0.42727 0,0.29073 -0.001,0.31021 -0.02022,0.34961 -0.02335,0.0482 -0.08506,0.10747 -0.132693,0.12737 -0.05022,0.021 -0.14838,0.0176 -0.197593,-0.007 z m 1.226851,0 c -0.0481,-0.0238 -0.106771,-0.0853 -0.126482,-0.13243 -0.01084,-0.0259 -0.01371,-0.0983 -0.01356,-0.33998 2.41e-4,-0.34566 0.0015,-0.35169 0.07468,-0.42187 0.05017,-0.048 0.09806,-0.0667 0.170475,-0.0667 0.07156,0 0.112248,0.0156 0.165197,0.0635 0.07882,0.0712 0.08017,0.0784 0.08017,0.42727 0,0.29073 -0.001,0.31021 -0.02022,0.34961 -0.02334,0.0482 -0.08506,0.10747 -0.132694,0.12737 -0.05022,0.021 -0.14838,0.0176 -0.197593,-0.007 z m 1.22685,0 c -0.04805,-0.0238 -0.106771,-0.0853 -0.126481,-0.13243 -0.01084,-0.0259 -0.01371,-0.0983 -0.01356,-0.33998 2.42e-4,-0.34566 0.0015,-0.35169 0.07468,-0.42187 0.05017,-0.048 0.09806,-0.0667 0.170476,-0.0667 0.07156,0 0.112247,0.0156 0.165196,0.0635 0.07882,0.0712 0.08017,0.0784 0.08017,0.42727 0,0.29073 -10e-4,0.31021 -0.02022,0.34961 -0.02334,0.0482 -0.08506,0.10747 -0.132693,0.12737 -0.05022,0.021 -0.14838,0.0176 -0.197594,-0.007 z m 1.226851,0 c -0.0481,-0.0238 -0.106771,-0.0853 -0.126482,-0.13243 -0.01084,-0.0259 -0.01371,-0.0983 -0.01357,-0.33998 2.42e-4,-0.34566 0.0015,-0.35169 0.07468,-0.42187 0.05017,-0.048 0.09807,-0.0667 0.170475,-0.0667 0.07157,0 0.112247,0.0156 0.165196,0.0635 0.07882,0.0712 0.08018,0.0784 0.08018,0.42727 0,0.29073 -0.001,0.31021 -0.02022,0.34961 -0.02335,0.0482 -0.08506,0.10747 -0.132693,0.12737 -0.05022,0.021 -0.148385,0.0176 -0.197594,-0.007 z m 1.22685,0 c -0.0481,-0.0238 -0.106766,-0.0853 -0.126481,-0.13243 -0.01084,-0.0259 -0.01371,-0.0983 -0.01356,-0.33998 2.42e-4,-0.34566 0.0015,-0.35169 0.07468,-0.42187 0.05017,-0.048 0.09806,-0.0667 0.170475,-0.0667 0.07156,0 0.112242,0.0156 0.165192,0.0635 0.07882,0.0712 0.08018,0.0784 0.08018,0.42727 0,0.29073 -10e-4,0.31021 -0.02022,0.34961 -0.02335,0.0482 -0.08506,0.10747 -0.132693,0.12737 -0.05022,0.021 -0.14838,0.0176 -0.197593,-0.007 z m 0.981481,-0.24537 c -0.0481,-0.0238 -0.106766,-0.0852 -0.126481,-0.13243 -0.01976,-0.0472 -0.01724,-0.14791 0.005,-0.19553 0.01004,-0.0216 0.03535,-0.0556 0.05622,-0.0756 0.07369,-0.0705 0.02259,-0.0667 0.906582,-0.0667 0.877486,0 0.827132,-0.003 0.901303,0.0635 0.0561,0.0507 0.08018,0.10535 0.08018,0.1819 0,0.0766 -0.02409,0.13125 -0.08018,0.18191 -0.07418,0.067 -0.02361,0.0635 -0.903443,0.0635 -0.788721,-2e-5 -0.798235,-2.5e-4 -0.839088,-0.0205 z m 4.761192,-2.00875 c -0.01487,-0.15168 -0.01742,-0.15727 -0.656197,-1.43472 -0.667334,-1.33464 -0.639524,-1.28489 -0.763155,-1.36533 -0.03091,-0.0201 -0.08609,-0.0448 -0.122687,-0.0549 -0.0645,-0.0178 -0.196789,-0.0184 -4.340886,-0.0184 -4.144091,0 -4.276376,5.1e-4 -4.340882,0.0184 -0.03661,0.0101 -0.0918,0.0348 -0.122685,0.0549 -0.123633,0.0804 -0.09582,0.0307 -0.763164,1.36533 -0.638741,1.27745 -0.641296,1.28304 -0.656192,1.43472 l -0.0065,0.0662 H 92.8065 98.69593 Z M 88.530054,203.1501 c -0.04805,-0.0238 -0.106766,-0.0852 -0.126481,-0.13242 -0.01976,-0.0472 -0.01724,-0.14792 0.005,-0.19554 0.02269,-0.0489 0.08255,-0.10705 0.130687,-0.1271 0.03272,-0.0136 0.374392,-0.0152 3.287316,-0.0152 h 3.25082 l 0.04178,0.0202 c 0.04819,0.0233 0.10746,0.0851 0.127361,0.1327 0.01769,0.0423 0.01769,0.14257 0,0.18494 -0.01989,0.0476 -0.07914,0.10935 -0.127361,0.1327 l -0.04178,0.0202 h -3.252963 l -3.252963,-1e-5 z m 7.36111,0 c -0.04812,-0.0238 -0.106772,-0.0852 -0.126487,-0.13242 -0.01976,-0.0472 -0.01728,-0.14792 0.0048,-0.19554 0.01005,-0.0215 0.03531,-0.0556 0.05624,-0.0756 0.07215,-0.069 0.04949,-0.0667 0.661215,-0.0667 0.607247,0 0.583099,-0.003 0.655935,0.0635 0.0561,0.0507 0.08018,0.10534 0.08018,0.1819 0,0.0766 -0.02409,0.13125 -0.08018,0.1819 -0.07286,0.0658 -0.04846,0.0635 -0.658069,0.0635 -0.540056,-1e-5 -0.553328,-4.6e-4 -0.593728,-0.0204 z"
       id="path963"
       inkscape:connector-curvature="0" />
  </g>
</svg>
